# AST/ASF file generated using VICON BodyLanguage
# -----------------------------------------------
:version 1.10
:name VICON
:units
  mass 1.0
  length 0.45
  angle deg
:documentation
   .ast/.asf automatically generated from VICON data using
   VICON BodyBuilder and BodyLanguage model FoxedUp or BRILLIANT.MOD
:root
   order TX TY TZ RX RY RZ
   axis XYZ
   position 0 0 0  
   orientation 0 0 0 
:bonedata
  begin
     id 1 
     name lhipjoint
     direction 0.573633 -0.743009 0.344793 
     length 2.46257 
     axis 0 0 0  XYZ
  end
  begin
     id 2 
     name lfemur
     direction 0.34202 -0.939693 0  
     length 7.3842  
     axis 0 0 20  XYZ
    dof rx ry rz
    limits (-160.0 20.0)
           (-70.0 70.0)
           (-60.0 70.0)
  end
  begin
     id 3 
     name ltibia
     direction 0.34202 -0.939693 0   
     length 7.50407   
     axis 0 0 20   XYZ
    dof rx
    limits (-10.0 170.0)
  end
  begin
     id 4 
     name lfoot
     direction 0.110749 -0.304281 0.946123   
     length 1.95925   
     axis -90 7.62852e-016 20   XYZ
    dof rx rz
    limits (-45.0 90.0)
           (-70.0 20.0)
  end
  begin
     id 5 
     name ltoes
     direction 1.53554e-011 -4.21843e-011 1   
     length 0.978318   
     axis -90 7.62852e-016 20   XYZ
    dof rx
    limits (-90.0 20.0)
  end
  begin
     id 6 
     name rhipjoint
     direction -0.488109 -0.791693 0.367385   
     length 2.31113  
     axis 0 0 0  XYZ 
  end
  begin
     id 7 
     name rfemur
     direction -0.34202 -0.939693 0   
     length 7.40965   
     axis 0 0 -20   XYZ
    dof rx ry rz
    limits (-160.0 20.0)
           (-70.0 70.0)
           (-70.0 60.0)
  end
  begin
     id 8 
     name rtibia
     direction -0.34202 -0.939693 0   
     length 7.55548   
     axis 0 0 -20   XYZ
    dof rx
    limits (-10.0 170.0)
 end
 begin
     id 9 
     name rfoot
     direction -0.127594 -0.350561 0.927808   
     length 2.07199  
     axis -90 -7.62852e-016 -20   XYZ
    dof rx rz
    limits (-45.0 90.0)
           (-20.0 70.0)
  end
  begin
     id 10 
     name rtoes
     direction -1.53542e-011 -4.21909e-011 1   
     length 1.02667   
     axis -90 -7.62852e-016 -20   XYZ
    dof rx
    limits (-90.0 20.0)
  end
  begin
     id 11 
     name lowerback
     direction -0.0103342 0.997298 -0.0727278   
     length 2.02836   
     axis 0 0 0   XYZ
    dof rx ry rz
    limits (-20.0 45.0)
           (-30.0 30.0)
           (-30.0 30.0)
  end
  begin
     id 12 
     name upperback
     direction 0.0171146 0.999786 -0.011606   
     length 2.03179   
     axis 0 0 0   XYZ
    dof rx ry rz
    limits (-20.0 45.0)
           (-30.0 30.0)
           (-30.0 30.0)
  end
  begin
     id 13 
     name thorax
     direction 0.0216927 0.999513 0.0224343   
     length 2.03882   
     axis 0 0 0   XYZ
    dof rx ry rz
    limits (-20.0 45.0)
           (-30.0 30.0)
           (-30.0 30.0)
  end
  begin
     id 14 
     name lowerneck
     direction 0.000989287 0.993907 0.110221   
     length 1.75428   
     axis 0 0 0   XYZ
    dof rx ry rz
    limits (-20.0 45.0)
           (-30.0 30.0)
           (-30.0 30.0)
  end
  begin
     id 15 
     name upperneck
     direction -0.0172474 0.994813 -0.100253   
     length 1.77058   
     axis 0 0 0   XYZ
    dof rx ry rz
    limits (-20.0 45.0)
           (-30.0 30.0)
           (-30.0 30.0)
  end
  begin
     id 16
     name head
     direction -0.00486455 0.99894 -0.0457663  
     length 1.77427  
     axis 0 0 0   XYZ
    dof rx ry rz
    limits (-20.0 45.0)
           (-30.0 30.0)
           (-30.0 30.0)
  end
  begin
     id 17 
     name lclavicle
     direction 0.927314 0.333734 -0.169441  
     length 3.97584  
     axis 0 0 0   XYZ
    dof ry rz
    limits (-20.0 10.0)
           (0.0 20.0)
  end
  begin
     id 18 
     name lhumerus
     direction 1 -4.48965e-011 -3.25313e-028   
     length 4.76468   
     axis 180 -30 -90   XYZ
    dof rx ry rz
    limits (-60.0 90.0)
           (-90.0 90.0)
           (-90.0 90.0)
  end
  begin
     id 19
     name lradius
     direction 1 -4.48969e-011 -2.8465e-028   
     length 3.52712   
     axis -180 -30 -90   XYZ
    dof rx
    limits (-10.0 170.0)
  end
  begin
     id 20
     name lwrist
     direction 1 -4.4896e-011 -7.78665e-028   
     length 1.76356   
     axis 1.91374e-015 90 90   XYZ
    dof ry
    limits (-180.0 0.0)
 end
  begin
     id 21 
     name lhand
     direction 1 -4.48959e-011 -1.55733e-027   
     length 0.859564   
     axis 9.9371e-016 90 90   XYZ
    dof rx rz
    limits (-90.0 90.0)
           (-45.0 45.0)
  end
  begin
     id 22 
     name lfingers
     direction 1 -4.48965e-011 -3.11466e-027   
     length 0.693002   
     axis 1.98742e-015 90 90   XYZ
    dof rx
    limits (0.0 90.0)
  end
  begin
     id 23
     name lthumb
     direction 0.707107 -6.34948e-011 0.707107   
     length 0.995017   
     axis -90 45 2.85299e-015   XYZ
    dof rx rz
    limits (-45.0 45.0)
           (-45.0 45.0)
  end
  begin
     id 24 
     name rclavicle
     direction -0.899388 0.348209 -0.264294   
     length 3.68366  
     axis 0 0 0   XYZ 
    dof ry rz
    limits (-10.0 20.0)
           (-20.0 0.0)
  end
  begin
     id 25 
     name rhumerus
     direction -1 -4.48965e-011 -3.01536e-027  
     length 4.90577   
     axis 180 30 90   XYZ
    dof rx ry rz
    limits (-90.0 60.0)
           (-90.0 90.0)
           (-90.0 90.0)
  end
  begin
     id 26 
     name rradius
     direction -1 -4.48966e-011 3.93291e-027   
     length 3.42692   
     axis -180 30 90   XYZ
    dof rx
    limits (-10.0 170.0)
  end
  begin
     id 27 
     name rwrist
     direction -1 -4.48969e-011 -7.78665e-028   
     length 1.71346   
     axis 1.91374e-015 -90 -90   XYZ
    dof ry
    limits (-180.0 0.0)
  end
  begin
     id 28
     name rhand
     direction -1 -4.48967e-011 -1.55733e-027   
     length 0.740957   
     axis 9.9371e-016 -90 -90   XYZ
    dof rx rz
    limits (-90.0 90.0)
           (-45.0 45.0)
  end
  begin
     id 29
     name rfingers
     direction -1 -4.48949e-011 -3.11466e-027   
     length 0.597378   
     axis 1.98742e-015 -90 -90   XYZ
    dof rx
    limits (0.0 90.0)
  end
  begin
     id 30
     name rthumb
     direction -0.707107 -6.34931e-011 0.707107   
     length 0.857719   
     axis -90 -45 -2.85299e-015   XYZ
    dof rx rz
    limits (-45.0 45.0)
           (-45.0 45.0)
  end
:hierarchy
  begin
    root lhipjoint rhipjoint lowerback
    lhipjoint lfemur
    lfemur ltibia
    ltibia lfoot
    lfoot ltoes
    rhipjoint rfemur
    rfemur rtibia
    rtibia rfoot
    rfoot rtoes
    lowerback upperback
    upperback thorax
    thorax lowerneck lclavicle rclavicle
    lowerneck upperneck
    upperneck head
    lclavicle lhumerus
    lhumerus lradius
    lradius lwrist
    lwrist lhand lthumb
    lhand lfingers
    rclavicle rhumerus
    rhumerus rradius
    rradius rwrist
    rwrist rhand rthumb
    rhand rfingers
  end

#!OML:ASF E:\I on waltz\AllaLogoMonkeySwing\Project 1\Capture day 1\Session 1\Subject1.ASF
:FULLY-SPECIFIED
:DEGREES
32
root -3.36246 17.0749 -16.0788 0.810205 10.725 3.93122
lowerback 7.61141 -2.18051 -10.0133
upperback 0.733541 -3.74228 -0.199178
thorax -2.87841 -1.74344 5.76517
lowerneck -1.8833 -10.195 -8.45452
upperneck 7.20326 -14.1347 10.2427
head 3.78665 -6.90499 3.76773
rclavicle -2.49723e-014 -1.5704e-014
rhumerus -5.67562 10.8278 -62.2099
rradius 128.777
rwrist 1.81228
rhand -17.9708 -33.271
rfingers 7.12502
rthumb 8.2985 -63.088
lclavicle -2.49723e-014 -1.5704e-014
lhumerus -44.256 38.2834 59.1294
lradius 23.175
lwrist -21.2557
lhand -6.70545 -10.957
lfingers 7.12502
lthumb 19.1541 18.1198
rfemur -13.5274 -5.72024 13.1287
rtibia 51.838
rfoot -27.1795 0.0989841
rtoes 17.7267
lfemur -10.3556 7.11298 -26.8484
ltibia 37.8642
lfoot -24.9666 9.42035
ltoes -25.89
33
root -3.38058 17.0741 -16.0841 1.06991 11.5186 4.0359
lowerback 7.36813 -2.14692 -9.94583
upperback 0.606167 -3.67603 -0.330612
thorax -2.90085 -1.70594 5.57443
lowerneck -1.81708 -10.4315 -8.94475
upperneck 7.31792 -14.4709 10.4789
head 3.89547 -7.07545 3.88386
rclavicle 5.97348e-014 1.43125e-014
rhumerus -9.91914 11.5078 -64.8642
rradius 126.694
rwrist 1.84461
rhand -16.6385 -32.9308
rfingers 7.12502
rthumb 9.58417 -62.6928
lclavicle 5.97348e-014 1.43125e-014
lhumerus -44.3318 38.0629 59.2799
lradius 23.6498
lwrist -20.0349
lhand -6.3957 -11.112
lfingers 7.12502
lthumb 19.4519 17.935
rfemur -12.4326 -5.21632 13.6132
rtibia 49.927
rfoot -28.5584 -3.21467
rtoes 15.8423
lfemur -10.7664 6.8669 -26.8553
ltibia 38.1144
lfoot -25.2237 8.79932
ltoes -25.8611
34
root -3.39967 17.0818 -16.0848 1.27884 12.3448 4.05814
lowerback 7.19074 -2.10124 -9.71053
upperback 0.481935 -3.58875 -0.484817
thorax -2.97117 -1.65811 5.26881
lowerneck -1.75071 -10.6808 -9.3702
upperneck 7.45608 -14.83 10.7055
head 4.01076 -7.25553 3.98394
rclavicle -8.92046e-015 -8.74653e-015
rhumerus -14.0333 11.9257 -67.5749
rradius 124.11
rwrist 1.65045
rhand -15.1209 -33.0348
rfingers 7.12502
rthumb 11.0481 -62.724
lclavicle -8.92046e-015 -8.74653e-015
lhumerus -44.1929 37.416 59.8299
lradius 24.3615
lwrist -18.1774
lhand -6.34003 -11.0965
lfingers 7.12502
lthumb 19.5055 17.9451
rfemur -11.4946 -4.39848 14.1418
rtibia 47.9348
rfoot -30.0426 -5.2443
rtoes 16.7646
lfemur -11.0936 6.76743 -26.7339
ltibia 38.2846
lfoot -25.5698 8.02846
ltoes -25.8347
35
root -3.42227 17.0634 -16.0906 1.45908 13.2685 4.17157
lowerback 7.1217 -2.07732 -9.54485
upperback 0.337349 -3.55144 -0.6817
thorax -3.11328 -1.63043 4.96805
lowerneck -1.65183 -10.9107 -9.71441
upperneck 7.66073 -15.1653 10.828
head 4.12642 -7.42551 4.04249
rclavicle -4.29872e-015 -2.46493e-014
rhumerus -18.099 12.0421 -70.3211
rradius 120.933
rwrist 0.806514
rhand -13.9895 -33.3994
rfingers 7.12502
rthumb 12.1392 -63.0272
lclavicle -4.29872e-015 -2.46493e-014
lhumerus -44.055 36.7334 60.4167
lradius 25.1789
lwrist -16.0926
lhand -6.38683 -10.9108
lfingers 7.12502
lthumb 19.4605 18.1353
rfemur -10.4341 -4.02248 14.6289
rtibia 46.0927
rfoot -31.2267 -7.23024
rtoes 17.6726
lfemur -11.4068 6.58664 -26.7023
ltibia 38.453
lfoot -25.8994 7.27492
ltoes -25.7778
36
root -3.44614 17.0558 -16.0974 1.67454 14.15 4.38579
lowerback 7.07232 -2.01465 -9.46044
upperback 0.215489 -3.47108 -0.906215
thorax -3.24532 -1.58212 4.68085
lowerneck -1.62035 -11.1469 -10.0844
upperneck 7.83628 -15.5021 10.9585
head 4.249 -7.59489 4.1023
rclavicle -2.11209e-015 -1.98785e-015
rhumerus -21.9843 11.2155 -73.3386
rradius 116.788
rwrist 0.883077
rhand -13.0604 -32.8346
rfingers 7.12502
rthumb 13.035 -62.4074
lclavicle -2.11209e-015 -1.98785e-015
lhumerus -43.8712 36.4649 60.9016
lradius 25.944
lwrist -14.3159
lhand -6.42575 -10.8575
lfingers 7.12502
lthumb 19.423 18.1924
rfemur -9.62934 -3.53909 14.9965
rtibia 44.5917
rfoot -31.9888 -8.97384
rtoes 19.3188
lfemur -11.6948 6.32846 -26.7926
ltibia 38.5629
lfoot -26.0963 6.67431
ltoes -25.8048
37
root -3.46678 17.0622 -16.1128 1.93998 14.6204 4.48914
lowerback 6.90832 -1.84623 -9.24779
upperback 0.141018 -3.22284 -1.08383
thorax -3.28996 -1.45883 4.35134
lowerneck -1.62968 -11.3633 -10.5039
upperneck 7.87544 -15.803 11.1672
head 4.34529 -7.74567 4.19502
rclavicle -2.94201e-014 -2.10712e-014
rhumerus -25.1007 9.47119 -76.2085
rradius 112.017
rwrist 0.697084
rhand -11.5546 -32.6004
rfingers 7.12502
rthumb 14.4862 -62.0747
lclavicle -2.94201e-014 -2.10712e-014
lhumerus -43.6644 36.6361 61.3589
lradius 26.7244
lwrist -12.8518
lhand -6.61938 -11.1583
lfingers 7.12502
lthumb 19.2369 17.9103
rfemur -9.29556 -2.71785 15.3578
rtibia 43.5184
rfoot -32.4904 -10.402
rtoes 20.0129
lfemur -12.0826 6.08732 -26.8516
ltibia 38.6455
lfoot -26.1011 6.39399
ltoes -25.7808
38
root -3.48234 17.0757 -16.1366 2.14477 14.8932 4.32768
lowerback 6.72594 -1.67107 -8.74759
upperback 0.103617 -2.93682 -1.16814
thorax -3.29536 -1.32443 3.95534
lowerneck -1.67273 -11.5128 -10.9409
upperneck 7.88786 -16.0117 11.4224
head 4.43588 -7.84905 4.31033
rclavicle 3.38182e-014 1.78906e-014
rhumerus -27.5313 7.19054 -78.6415
rradius 106.673
rwrist 0.365558
rhand -10.1467 -32.454
rfingers 7.12502
rthumb 15.8424 -61.8259
lclavicle 3.38182e-014 1.78906e-014
lhumerus -43.4414 36.8798 61.9785
lradius 27.5885
lwrist -11.3113
lhand -7.11757 -11.4564
lfingers 7.12502
lthumb 18.7577 17.6592
rfemur -9.25276 -1.89181 15.8324
rtibia 42.8395
rfoot -32.6813 -11.3992
rtoes 20.5121
lfemur -12.4621 5.78857 -26.6954
ltibia 38.6417
lfoot -25.9586 6.33143
ltoes -25.7115
39
root -3.49876 17.0909 -16.1623 2.31063 15.3372 4.12731
lowerback 6.60801 -1.58419 -8.22624
upperback 0.0873994 -2.77239 -1.22206
thorax -3.29364 -1.25146 3.5916
lowerneck -1.76746 -11.6348 -11.3327
upperneck 7.97614 -16.1809 11.6198
head 4.54643 -7.93076 4.40022
rclavicle -1.64991e-014 3.97569e-016
rhumerus -29.2365 4.32567 -80.5913
rradius 100.732
rwrist -0.0543753
rhand -8.72252 -32.7861
rfingers 7.12502
rthumb 17.2135 -62.0437
lclavicle -1.64991e-014 3.97569e-016
lhumerus -43.283 37.2385 62.5943
lradius 28.5014
lwrist -9.74469
lhand -7.66848 -11.5472
lfingers 7.12502
lthumb 18.2278 17.6188
rfemur -9.31906 -1.50802 16.2449
rtibia 42.4482
rfoot -32.6072 -11.9457
rtoes 20.9986
lfemur -12.8151 5.41416 -26.4897
ltibia 38.6317
lfoot -25.8105 6.27561
ltoes -25.7422
40
root -3.51982 17.1074 -16.1881 2.46171 15.8654 3.89816
lowerback 6.51318 -1.54981 -7.78237
upperback 0.0948119 -2.68345 -1.21419
thorax -3.26218 -1.21606 3.34186
lowerneck -1.92806 -11.7661 -11.5425
upperneck 8.06938 -16.332 11.5268
head 4.62856 -8.00677 4.37419
rclavicle 1.41634e-014 1.15295e-014
rhumerus -30.1023 1.14506 -82.0459
rradius 94.0332
rwrist -0.544284
rhand -7.24897 -33.6227
rfingers 7.12502
rthumb 18.6314 -62.7505
lclavicle 1.41634e-014 1.15295e-014
lhumerus -43.1978 37.6331 63.3056
lradius 29.5019
lwrist -7.93866
lhand -8.13105 -11.6637
lfingers 7.12502
lthumb 17.7827 17.5433
rfemur -9.51999 -1.53621 16.6071
rtibia 42.2373
rfoot -32.2826 -12.1483
rtoes 21.1806
lfemur -13.198 5.02688 -26.2262
ltibia 38.6633
lfoot -25.7091 6.12039
ltoes -25.4945
41
root -3.54341 17.1203 -16.2153 2.47303 16.5298 3.58989
lowerback 6.53746 -1.55924 -7.36204
upperback 0.158224 -2.65992 -1.10554
thorax -3.22511 -1.21346 3.21857
lowerneck -2.07516 -11.8818 -11.6891
upperneck 8.02809 -16.435 11.2779
head 4.64328 -8.06548 4.30091
rclavicle -1.86361e-014 1.11319e-014
rhumerus -30.4568 -2.02613 -82.9668
rradius 87.0403
rwrist -1.45917
rhand -6.99682 -35.0057
rfingers 7.12502
rthumb 18.8739 -64.11
lclavicle -1.86361e-014 1.11319e-014
lhumerus -43.0852 37.9845 64.2642
lradius 30.4896
lwrist -5.98461
lhand -8.73321 -11.9111
lfingers 7.12502
lthumb 17.2032 17.3474
rfemur -9.65388 -1.83679 17.0091
rtibia 42.133
rfoot -31.9029 -12.2542
rtoes 21.1444
lfemur -13.4873 4.60197 -25.8402
ltibia 38.7262
lfoot -25.6014 5.8182
ltoes -25.0229
